# xmcd
#
# Track frame offsets: 
#        150
#        19052
#        38968
#        59403
#        78125
#        99998
#        121680
#        139881
#        159964
#        181286
#
# Disc length: 2716 seconds
#
# Revision: 0
# Processed by: cddbd v1.5.2PL0 Copyright (c) Steve Scherf et al.
# Submitted via: ExactAudioCopy v0.95b1
#
DISCID=730a9a0a
DTITLE=Tito Nieves - Canciones Clásicas De Marco Antonio Solís
DYEAR=2007
DGENRE=Salsa
TTITLE0=Más Que Tu Amigo
TTITLE1=Cuando Te Acuerdes De Mí
TTITLE2=El Peor De Mis Fracasos
TTITLE3=Si Te Pudiera Mentir
TTITLE4=O Me Voy O Te Vas
TTITLE5=A Que Me Quedo Contigo
TTITLE6=Cómo Fui a Enamorame De Ti
TTITLE7=Quiéreme
TTITLE8=Tu Cárcel
TTITLE9=Si Not Te Hubieras Ido
EXTD=
EXTT0=
EXTT1=
EXTT2=
EXTT3=
EXTT4=
EXTT5=
EXTT6=
EXTT7=
EXTT8=
EXTT9=
PLAYORDER=
